# xmcd CD database file
#
# Track frame offsets:
#	150
#	32751
#	52656
#	81922
#	123369
#	138214
#	159189
#	181774
#	202833
#	228340
#	270170
#	315424
#
# Disc length: 4440 seconds
#
# Revision: 2
# Processed by: cddbd v1.4b41PL1 Copyright (c) Steve Scherf et al.
# Submitted via: Feurio! 1.51.12ß - http://www.feurio.com
#
DISCID=8211560c
DTITLE=Indigenous - Live Blues From The Sky
DYEAR=1900
DGENRE=
TTITLE0=I've Got The Blues
TTITLE1=What's Going On
TTITLE2=Got To Tell You
TTITLE3=The Faults All My Own
TTITLE4=Don't Take Your Time
TTITLE5=Something Wrong Here
TTITLE6=Things We Do
TTITLE7=Awake
TTITLE8=Blues From The Sky
TTITLE9=Love In A Mist
TTITLE10=I Wonder Why
TTITLE11=Now That You're Gone (Studio)
EXTD=
EXTT0=
EXTT1=
EXTT2=
EXTT3=
EXTT4=
EXTT5=
EXTT6=
EXTT7=
EXTT8=
EXTT9=
EXTT10=
EXTT11=
PLAYORDER=
